<?xml version="1.0" standalone="no"?>
<!DOCTYPE svg PUBLIC "-//W3C//DTD SVG 1.1//EN" "http://www.w3.org/Graphics/SVG/1.1/DTD/svg11.dtd" >
<svg xmlns="http://www.w3.org/2000/svg">
<metadata>Generated by IcoMoon</metadata>
<defs>
<font id="icomoon" horiz-adv-x="1024">
<font-face units-per-em="1024" ascent="960" descent="-64" />
<missing-glyph horiz-adv-x="1024" />
<glyph unicode="&#x20;" horiz-adv-x="512" d="" />
<glyph unicode="&#xe900;" glyph-name="truck" d="M938.666 170.666c47.146 0 85.334 38.186 85.334 85.334v533.334c0 47.146-38.186 85.334-85.334 85.334l-469.332-0.002c-47.146 0-85.334-38.186-85.334-85.334v-85.334h-129.706c-28.586 0-53.974-11.306-72.32-29.44l-107.946-108.374c-19.414-19.198-31.362-46.078-31.362-75.518v-214.4c-24.32-4.906-42.666-26.454-42.666-52.266 0-29.44 23.894-53.334 53.334-53.334h75.094c5.334-83.414 74.88-149.334 159.574-149.334s154.24 65.92 159.574 149.334h149.974c5.546-83.414 75.094-149.334 159.786-149.334 84.694 0 154.24 65.92 159.574 149.334h21.756zM341.334 181.334c0-29.44-23.894-53.334-53.334-53.334s-53.334 23.894-53.334 53.334 23.894 53.334 53.334 53.334 53.334-23.894 53.334-53.334zM810.666 181.334c0-29.44-23.894-53.334-53.334-53.334s-53.332 23.894-53.332 53.334 23.894 53.334 53.334 53.334 53.332-23.894 53.332-53.334zM149.334 426.666v53.952c0 21.334 8.534 31.382 24.534 47.382l45.866 45.866c14.506 14.506 25.6 23.466 46.506 23.466l117.76 0.002v-170.666l-234.666-0.002z" />
<glyph unicode="&#xe901;" glyph-name="pointer" d="M888.342-64c73.578 119.040 114.324 257.302 114.324 393.814 0 60.16-6.186 119.040-21.334 176-11.092 39.252-43.284 70.186-85.332 70.186-25.366 0-48.426-11.094-64-28.822v7.488c0 47.146-38.186 85.334-85.334 85.334s-85.334-38.186-85.334-85.334v42.666c0 47.146-38.186 85.334-85.334 85.334s-85.334-38.186-85.334-85.334l0.002 277.334c0 47.146-38.186 85.334-85.334 85.334s-85.334-38.186-85.334-85.334v-486.634c0-23.658-19.2-42.666-42.666-42.666-4.054 0-7.894 0.64-11.734 1.706l-120.534 49.066c-11.518 5.782-24.53 9.196-38.398 9.196-47.146 0-85.334-38.186-85.334-85.334 0-35.414 21.76-65.92 52.48-78.934 138.454-71.466 249.386-159.146 327.040-305.066h487.49z" />
<glyph unicode="&#xe902;" glyph-name="arrow-light" d="M750.933 448c0-6.827-3.413-13.653-6.827-20.48l-423.253-447.147c-10.24-10.24-27.307-13.653-40.96-3.413 0 0 0 0 0 0-3.413 6.827-6.827 13.653-6.827 20.48s3.413 13.653 6.827 20.48l406.187 430.080-406.187 430.080c-3.413 3.413-6.827 13.653-6.827 20.48s3.413 13.653 10.24 20.48c3.413 3.413 10.24 6.827 17.067 6.827s13.653-3.413 20.48-10.24l423.253-450.56c3.413-3.413 6.827-10.24 6.827-17.067z" />
<glyph unicode="&#xe907;" glyph-name="location-solid" d="M194.56 639.147v0c-3.413-133.12 238.933-675.84 317.44-686.080 68.267-6.827 324.267 552.96 317.44 692.907-23.893 409.6-621.227 378.88-634.88-6.827zM512 785.92c92.16 0 167.253-75.093 167.253-167.253s-75.093-167.253-167.253-167.253-167.253 75.093-167.253 167.253c0 0 0 0 0 0 0 92.16 75.093 167.253 167.253 167.253z" />
<glyph unicode="&#xe90a;" glyph-name="check-solid" d="M167.253 471.893c51.2-23.893 92.16-61.44 122.88-102.4l17.067-10.24c163.84 218.453 358.4 395.947 597.333 525.653l105.813-174.080c-249.173-143.36-464.213-334.507-610.987-583.68l-78.507-129.707c-78.507 112.64-160.427 232.107-269.653 314.027l116.053 160.427z" />
<glyph unicode="&#xe90b;" glyph-name="close" d="M51.2-12.8c23.893-23.893 54.613-34.133 88.747-34.133 30.72 0 64.853 13.653 88.747 34.133l286.72 290.133 286.72-286.72c23.893-23.893 54.613-34.133 88.747-34.133 30.72 0 64.853 13.653 85.333 34.133 47.787 47.787 47.787 126.293 0 174.080l-290.133 283.307 286.72 286.72c47.787 47.787 47.787 126.293 0 174.080s-126.293 47.787-174.080 0l-286.72-286.72-286.72 286.72c-51.2 47.787-129.707 40.96-174.080-6.827-40.96-47.787-40.96-116.053 0-163.84l286.72-290.133-290.133-286.72c-44.373-51.2-44.373-126.293 3.413-174.080z" />
<glyph unicode="&#xe90c;" glyph-name="close-light" d="M972.8 823.467c23.893 23.893 23.893 61.44 0 81.92v0c-23.893 23.893-58.027 23.893-81.92 0l-334.507-334.507c-23.893-23.893-61.44-23.893-81.92 0 0 0 0 0 0 0l-337.92 337.92c-23.893 23.893-58.027 23.893-81.92 0v0c-23.893-23.893-23.893-61.44 0-85.333l334.507-334.507c23.893-23.893 23.893-61.44 0-81.92l-337.92-334.507c-23.893-23.893-23.893-61.44 0-81.92v0c23.893-23.893 61.44-23.893 81.92 0 0 0 0 0 0 0l334.507 334.507c23.893 23.893 61.44 23.893 81.92 0 0 0 0 0 0 0l334.507-334.507c23.893-23.893 61.44-23.893 81.92 0 0 0 0 0 0 0v0c23.893 23.893 23.893 61.44 0 81.92l-334.507 334.507c-23.893 23.893-23.893 61.44 0 81.92l341.333 334.507z" />
<glyph unicode="&#xe911;" glyph-name="email" d="M1006.933 717.653v0l-10.24 20.48c-3.413 6.827-10.24 13.653-13.653 17.067-17.067 20.48-37.547 34.133-61.44 44.373 0 0 0 0-3.413 0s-10.24 3.413-13.653 3.413c0 0-3.413 0-3.413 0-3.413 0-10.24 3.413-13.653 3.413h-3.413c-6.827 0-13.653 0-17.067 0h-706.56c-6.827 0-13.653 0-17.067 0h-6.827c-3.413 0-10.24 0-13.653-3.413 0 0-3.413 0-3.413 0-6.827 0-10.24 0-17.067-3.413 0 0 0 0-3.413 0-20.48-10.24-40.96-23.893-58.027-40.96-6.827-6.827-10.24-13.653-17.067-20.48l-10.24-17.067c-10.24-23.893-13.653-47.787-13.653-68.267v-361.813c0-88.747 71.68-157.013 157.013-157.013h706.56c88.747 0 157.013 71.68 157.013 157.013v361.813c3.413 20.48-3.413 44.373-13.653 64.853v0zM955.733 652.8v-361.813c0-10.24-3.413-20.48-3.413-30.72l-201.387 201.387 204.8 204.8c0-6.827 0-10.24 0-13.653v0zM866.987 744.96h17.067c0 0 3.413 0 3.413 0h3.413c10.24-3.413 23.893-10.24 30.72-17.067l-341.333-341.333c-37.547-37.547-102.4-37.547-139.947 0l-337.92 337.92c10.24 6.827 20.48 13.653 30.72 17.067h3.413c0 0 3.413 0 3.413 0h17.067l709.973 3.413zM273.067 461.653l-201.387-201.387c-3.413 6.827-6.827 17.067-6.827 27.307v365.227c0 3.413 0 10.24 0 13.653l208.213-204.8zM157.013 198.827c-17.067 0-30.72 3.413-44.373 10.24l204.8 204.8 75.093-75.093c30.72-30.72 75.093-47.787 116.053-47.787s85.333 17.067 116.053 47.787l75.093 75.093 208.213-204.8c-13.653-6.827-27.307-10.24-44.373-10.24h-706.56z" />
<glyph unicode="&#xe912;" glyph-name="email-light" d="M935.253 779.093h-846.507c-37.547 0-68.267-30.72-68.267-68.267v-491.52c0-37.547 30.72-68.267 68.267-68.267h849.92c37.547 0 68.267 30.72 68.267 68.267v491.52c-3.413 37.547-30.72 68.267-71.68 68.267v0zM88.747 751.787h849.92c20.48 0 37.547-17.067 40.96-34.133l-467.627-385.707-464.213 382.293c0 20.48 20.48 37.547 40.96 37.547v0zM505.173 304.64c3.413 0 3.413-3.413 6.827-3.413s6.827 0 6.827 3.413l98.987 81.92 276.48-211.627h-768l276.48 211.627 102.4-81.92zM47.787 215.893v464.213l337.92-276.48-303.787-228.693c-20.48 3.413-34.133 20.48-34.133 40.96v0zM942.080 174.933l-300.373 228.693 337.92 276.48v-464.213c-3.413-20.48-17.067-37.547-37.547-40.96v0z" />
<glyph unicode="&#xe917;" glyph-name="facebook" d="M576.853-40.107h-153.6c-30.72 0-51.2 23.893-51.2 51.2v341.333h-85.333c-30.72 0-51.2 23.893-51.2 51.2v150.187c0 30.72 23.893 51.2 51.2 51.2h85.333v68.267c0 153.6 102.4 256 252.587 256h119.467c27.307 0 51.2-23.893 51.2-51.2v-139.947c0-30.72-23.893-51.2-51.2-51.2h-78.507c-30.72 0-30.72 0-30.72-30.72v-54.613h105.813c13.653 0 27.307-6.827 37.547-17.067s13.653-23.893 13.653-37.547v-150.187c0-30.72-23.893-51.2-51.2-51.2h-105.813v-341.333c-6.827-20.48-30.72-44.373-58.027-44.373zM436.907 28.16h122.88v395.947h157.013v119.467h-157.013v119.467c0 40.96 10.24 98.987 98.987 98.987h64.853v105.813h-102.4c-112.64 0-184.32-71.68-184.32-187.733v-136.533h-136.533v-119.467h136.533v-395.947zM737.28 867.84v0 0z" />
<glyph unicode="&#xe918;" glyph-name="facebook-light" d="M580.267-60.587h-167.253c-20.48 0-37.547 17.067-37.547 37.547v389.12h-109.227c-20.48 0-37.547 17.067-37.547 37.547v160.427c0 20.48 17.067 37.547 37.547 37.547h109.227v95.573c0 157.013 98.987 259.413 252.587 259.413h126.293c20.48 0 37.547-17.067 37.547-37.547v-150.187c0-20.48-17.067-37.547-37.547-37.547h-85.333c-47.787 0-51.2-13.653-51.2-51.2v-78.507h133.12c10.24 0 20.48-3.413 27.307-10.24s10.24-17.067 10.24-27.307v-160.427c0-20.48-17.067-37.547-37.547-37.547h-133.12v-389.12c0-20.48-17.067-37.547-37.547-37.547zM266.24 567.467c0 0-3.413 0 0 0l-3.413-163.84c0 0 0-3.413 3.413-3.413h143.36v-423.253c0 0 0-3.413 3.413-3.413h167.253c0 0 3.413 0 3.413 3.413v423.253h167.253c0 0 3.413 0 3.413 3.413v160.427l-3.413 3.413h-167.253v112.64c0 51.2 13.653 85.333 85.333 85.333h85.333c0 0 3.413 0 3.413 3.413v150.187c0 0 0 3.413-3.413 3.413h-126.293c-133.12 0-218.453-88.747-218.453-225.28v-129.707h-143.36z" />
<glyph unicode="&#xe919;" glyph-name="facebook-solid" d="M914.773 901.973h-808.96c-27.307 0-51.2-23.893-51.2-51.2v-808.96c0-27.307 23.893-51.2 51.2-51.2h436.907v354.987h-119.467v136.533h119.467v102.4c0 116.053 71.68 180.907 177.493 180.907 51.2 0 92.16-3.413 105.813-6.827v-122.88h-71.68c-58.027 0-68.267-27.307-68.267-68.267v-85.333h136.533l-17.067-136.533h-119.467v-351.573h232.107c27.307 0 51.2 23.893 51.2 51.2v808.96c-3.413 27.307-23.893 47.787-54.613 47.787z" />
<glyph unicode="&#xe922;" glyph-name="search-icon" d="M716.8 263.68c-3.413 0-3.413-3.413-3.413-3.413v0c0 0-3.413-3.413-3.413-3.413v0c-64.853-61.44-150.187-98.987-245.76-98.987-197.973 0-354.987 160.427-354.987 354.987s157.013 351.573 351.573 351.573c197.973 0 354.987-160.427 354.987-354.987 0-95.573-37.547-184.32-98.987-245.76v0 0zM1003.52 38.4l-184.32 184.32c61.44 78.507 98.987 177.493 98.987 286.72 0 252.587-204.8 457.387-457.387 457.387s-457.387-204.8-457.387-457.387 204.8-457.387 457.387-457.387c109.227 0 208.213 37.547 286.72 98.987v0l187.733-187.733c10.24-10.24 20.48-13.653 37.547-13.653 27.307 0 51.2 23.893 51.2 51.2-3.413 13.653-10.24 27.307-20.48 37.547 0 0 0 0 0 0z" />
<glyph unicode="&#xe92e;" glyph-name="star" d="M512 901.973c-6.827 0-13.653-6.827-17.067-13.653l-98.987-310.613h-317.44c-6.827 0-17.067-6.827-17.067-13.653-3.413-6.827 0-17.067 6.827-23.893l256-197.973-98.987-320.853c-3.413-10.24 0-17.067 6.827-23.893s17.067-6.827 23.893 0l256 197.973 256-197.973c6.827-6.827 17.067-6.827 23.893 0s10.24 13.653 6.827 23.893l-98.987 320.853 256 197.973c6.827 6.827 10.24 13.653 6.827 23.893-3.413 6.827-10.24 13.653-17.067 13.653h-317.44l-98.987 310.613c0 10.24-10.24 13.653-17.067 13.653v0z" />
<glyph unicode="&#xe932;" glyph-name="instagram" d="M512 837.12c126.293 0 139.947 0 191.147-3.413 47.787-3.413 71.68-10.24 88.747-17.067 20.48-10.24 37.547-20.48 54.613-34.133 17.067-17.067 27.307-30.72 34.133-54.613 6.827-17.067 13.653-40.96 17.067-88.747 3.413-51.2 3.413-64.853 3.413-191.147s0-139.947-3.413-191.147c-3.413-47.787-10.24-71.68-17.067-88.747-10.24-20.48-20.48-37.547-34.133-54.613-17.067-17.067-30.72-27.307-54.613-34.133-17.067-6.827-40.96-13.653-88.747-17.067-51.2-3.413-64.853-3.413-191.147-3.413s-139.947 0-191.147 3.413c-47.787 3.413-71.68 10.24-88.747 17.067-20.48 10.24-37.547 20.48-54.613 34.133-17.067 17.067-27.307 30.72-34.133 54.613-6.827 17.067-13.653 40.96-17.067 88.747-3.413 51.2-3.413 64.853-3.413 191.147s0 139.947 3.413 191.147c3.413 47.787 10.24 71.68 17.067 88.747 10.24 20.48 20.48 37.547 34.133 54.613s30.72 27.307 54.613 34.133c17.067 6.827 40.96 13.653 88.747 17.067 51.2 3.413 64.853 3.413 191.147 3.413zM512 922.453c-129.707 0-143.36 0-194.56-3.413s-85.333-10.24-116.053-23.893c-30.72-10.24-58.027-27.307-81.92-54.613s-44.373-51.2-54.613-81.92c-13.653-30.72-20.48-64.853-23.893-116.053s-3.413-68.267-3.413-194.56 0-143.36 3.413-194.56 10.24-85.333 20.48-116.053c13.653-30.72 27.307-58.027 54.613-85.333s51.2-40.96 85.333-54.613c30.72-10.24 64.853-20.48 116.053-20.48 51.2-3.413 68.267-3.413 194.56-3.413s143.36 0 194.56 3.413c51.2 3.413 85.333 10.24 116.053 20.48 30.72 13.653 58.027 27.307 85.333 54.613s40.96 51.2 54.613 85.333c10.24 30.72 20.48 64.853 20.48 116.053 3.413 51.2 3.413 68.267 3.413 194.56s0 143.36-3.413 194.56c-3.413 51.2-10.24 85.333-20.48 116.053-13.653 30.72-27.307 58.027-54.613 85.333s-54.613 40.96-85.333 51.2c-30.72 10.24-64.853 20.48-116.053 20.48-51.2 6.827-64.853 6.827-194.56 6.827zM512 690.347c-133.12 0-242.347-109.227-242.347-242.347s109.227-242.347 242.347-242.347 242.347 109.227 242.347 242.347-109.227 242.347-242.347 242.347zM512 290.987c-88.747 0-157.013 71.68-157.013 157.013s71.68 157.013 157.013 157.013 157.013-71.68 157.013-157.013-68.267-157.013-157.013-157.013zM822.613 700.587c0-30.72-23.893-58.027-58.027-58.027s-58.027 23.893-58.027 58.027 23.893 58.027 58.027 58.027 58.027-27.307 58.027-58.027z" />
<glyph unicode="&#xe933;" glyph-name="instagram-light" d="M733.867-53.76h-443.733c-153.6 0-279.893 126.293-279.893 279.893v443.733c0 153.6 126.293 279.893 279.893 279.893h443.733c153.6 0 279.893-126.293 279.893-279.893v-443.733c0-153.6-126.293-279.893-279.893-279.893zM290.133 908.8c-133.12 0-238.933-105.813-238.933-238.933v-443.733c0-133.12 105.813-238.933 238.933-238.933h443.733c133.12 0 238.933 105.813 238.933 238.933v443.733c0 133.12-105.813 238.933-238.933 238.933h-443.733zM512 195.413c-139.947 0-252.587 112.64-252.587 252.587s112.64 252.587 252.587 252.587c139.947 0 252.587-112.64 252.587-252.587s-112.64-252.587-252.587-252.587zM512 659.627c-116.053 0-211.627-95.573-211.627-211.627s95.573-211.627 211.627-211.627c116.053 0 211.627 95.573 211.627 211.627s-95.573 211.627-211.627 211.627zM846.507 731.307c0-28.277-22.923-51.2-51.2-51.2s-51.2 22.923-51.2 51.2c0 28.277 22.923 51.2 51.2 51.2s51.2-22.923 51.2-51.2z" />
<glyph unicode="&#xe934;" glyph-name="instagram-solid" d="M512 936.107c133.12 0 150.187 0 201.387-3.413s88.747-10.24 119.467-23.893c30.72-13.653 58.027-30.72 85.333-54.613 23.893-23.893 44.373-54.613 54.613-85.333 13.653-30.72 20.48-64.853 23.893-119.467 3.413-51.2 3.413-68.267 3.413-201.387s0-150.187-3.413-201.387c-3.413-51.2-10.24-88.747-23.893-119.467-13.653-34.133-30.72-61.44-54.613-85.333s-54.613-44.373-85.333-54.613c-30.72-13.653-64.853-20.48-119.467-23.893-51.2-3.413-68.267-3.413-201.387-3.413s-150.187 0-201.387 3.413c-51.2 3.413-88.747 10.24-119.467 23.893-34.133 13.653-61.44 30.72-85.333 54.613s-44.373 54.613-54.613 85.333c-13.653 30.72-20.48 64.853-23.893 119.467-3.413 51.2-3.413 68.267-3.413 201.387s0 150.187 3.413 201.387 10.24 88.747 23.893 119.467c13.653 34.133 30.72 61.44 54.613 85.333s54.613 44.373 85.333 54.613c30.72 13.653 64.853 20.48 119.467 23.893 51.2 3.413 68.267 3.413 201.387 3.413zM512 693.76c-136.533 0-245.76-109.227-245.76-245.76s109.227-242.347 242.347-242.347 242.347 109.227 242.347 242.347-105.813 245.76-238.933 245.76zM826.027 704c0 34.133-27.307 61.44-61.44 61.44s-61.44-27.307-61.44-61.44 27.307-61.44 61.44-61.44c34.133 0 61.44 27.307 61.44 61.44zM512 594.773c81.92 0 146.773-64.853 146.773-146.773s-64.853-146.773-146.773-146.773-146.773 64.853-146.773 146.773 64.853 146.773 146.773 146.773z" />
<glyph unicode="&#xe944;" glyph-name="location" d="M808.96 785.92c-126.293 163.84-358.4 194.56-522.24 68.267s-197.973-358.4-71.68-522.24l269.653-354.987c6.827-6.827 17.067-13.653 27.307-13.653h3.413c10.24 0 17.067 6.827 23.893 13.653l269.653 354.987c102.4 133.12 102.4 317.44 0 453.973zM512 864.427v0c170.667 0 307.2-139.947 307.2-310.613 0-64.853-23.893-129.707-61.44-184.32l-245.76-317.44-245.76 317.44c-102.4 136.533-75.093 327.68 58.027 430.080 54.613 44.373 119.467 64.853 187.733 64.853zM512 318.293c126.293 0 232.107 102.4 232.107 232.107 0 126.293-102.4 232.107-232.107 232.107s-232.107-102.4-232.107-232.107v0c0-126.293 105.813-232.107 232.107-232.107zM348.16 550.4c0 92.16 75.093 163.84 163.84 163.84 92.16 0 163.84-75.093 163.84-163.84 0-92.16-75.093-163.84-163.84-163.84-92.16 0-163.84 71.68-163.84 163.84z" />
<glyph unicode="&#xe945;" glyph-name="age-light" d="M894.293 912.213c0 27.307-30.72 47.787-64.853 47.787h-634.88c-34.133 0-64.853-20.48-64.853-47.787 0-20.48 20.48-40.96 51.2-44.373v-839.68c-27.307-3.413-51.2-23.893-51.2-44.373 0-27.307 30.72-47.787 64.853-47.787h634.88c34.133 0 64.853 20.48 64.853 47.787 0 23.893-23.893 40.96-54.613 44.373v839.68c30.72 3.413 54.613 23.893 54.613 44.373v0zM863.573-16.213c0-13.653-17.067-23.893-34.133-23.893h-634.88c-20.48 0-34.133 10.24-34.133 23.893s17.067 23.893 34.133 23.893h634.88c17.067 0 34.133-10.24 34.133-23.893v0zM723.627 714.24c0-75.093-71.68-133.12-126.293-180.907-40.96-34.133-71.68-61.44-71.68-85.333s30.72-47.787 68.267-81.92c58.027-47.787 129.707-109.227 129.707-184.32 0-78.507-78.507-150.187-163.84-150.187h-95.573c-85.333 0-163.84 71.68-163.84 150.187 0 75.093 71.68 136.533 129.707 184.32 37.547 34.133 68.267 58.027 68.267 81.92s-30.72 51.2-71.68 85.333c-58.027 47.787-126.293 105.813-126.293 180.907 0 78.507 78.507 150.187 163.84 150.187h95.573c85.333 0 163.84-71.68 163.84-150.187v0zM645.12 867.84h163.84v-836.267h-160.427c61.44 30.72 102.4 88.747 102.4 150.187 0 81.92-78.507 150.187-136.533 197.973-30.72 27.307-61.44 51.2-61.44 68.267s30.72 44.373 64.853 71.68c61.44 51.2 133.12 112.64 133.12 194.56 0 64.853-44.373 122.88-105.813 153.6v0zM266.24 714.24c0-81.92 75.093-143.36 136.533-194.56 34.133-30.72 64.853-54.613 64.853-71.68 0-13.653-30.72-40.96-61.44-68.267-58.027-47.787-136.533-116.053-136.533-197.973 0-64.853 44.373-122.88 102.4-150.187h-160.427v836.267h163.84c-64.853-30.72-109.227-88.747-109.227-153.6v0zM829.44 888.32h-634.88c-20.48 0-34.133 10.24-34.133 23.893s17.067 23.893 34.133 23.893h634.88c20.48 0 34.133-10.24 34.133-23.893s-17.067-23.893-34.133-23.893v0z" />
<glyph unicode="&#xe946;" glyph-name="age-solid" d="M109.227 919.040c0-13.653 10.24-23.893 23.893-23.893h116.053v-139.947c0-37.547 17.067-75.093 44.373-102.4l215.040-194.56 211.627 194.56c27.307 27.307 44.373 61.44 44.373 98.987v143.36h129.707c13.653 0 23.893 10.24 23.893 23.893s-10.24 23.893-23.893 23.893h-761.173c-13.653 3.413-23.893-10.24-23.893-23.893v0zM133.12-57.173h754.347c13.653 0 23.893 10.24 23.893 23.893s-10.24 23.893-23.893 23.893h-116.053v157.013c0 37.547-17.067 75.093-44.373 102.4l-215.040 194.56-208.213-194.56c-27.307-27.307-44.373-61.44-44.373-98.987v-157.013h-126.293c-13.653 0-23.893-10.24-23.893-23.893s10.24-27.307 23.893-27.307v0z" />
<glyph unicode="&#xe958;" glyph-name="mobile" d="M736 960h-448c-52.8 0-96-43.2-96-96v-832c0-52.8 43.2-96 96-96h448c52.8 0 96 43.2 96 96v832c0 52.8-43.2 96-96 96zM384 912h256v-32h-256v32zM512 0c-35.346 0-64 28.654-64 64s28.654 64 64 64 64-28.654 64-64-28.654-64-64-64zM768 192h-512v640h512v-640z" />
<glyph unicode="&#xe959;" glyph-name="plus" d="M512 939.52c-54.613 0-98.987-44.373-98.987-98.987v-296.96h-293.547c-54.613 0-98.987-44.373-98.987-98.987s44.373-98.987 98.987-98.987h296.96v-296.96c0-54.613 44.373-98.987 98.987-98.987s98.987 44.373 98.987 98.987v296.96h296.96c54.613 0 98.987 44.373 98.987 98.987s-44.373 98.987-98.987 98.987h-296.96v300.373c-3.413 54.613-47.787 95.573-102.4 95.573z" />
<glyph unicode="&#xe95a;" glyph-name="plus-light" d="M512 939.52c-30.72 0-54.613-23.893-54.613-54.613v-385.707h-385.707c-30.72 0-54.613-23.893-54.613-54.613s23.893-54.613 54.613-54.613h385.707v-385.707c0-30.72 23.893-54.613 54.613-54.613s54.613 23.893 54.613 54.613v389.12h385.707c30.72 0 54.613 23.893 54.613 54.613s-23.893 54.613-54.613 54.613h-385.707v385.707c0 30.72-23.893 51.2-54.613 51.2v0z" />
<glyph unicode="&#xe973;" glyph-name="facebook-solid1" d="M658.773 744.96h81.92v139.947h-119.467c-122.88 0-201.387-81.92-201.387-204.8v-119.467h-136.533v-153.6h136.533v-395.947h157.013v395.947h157.013v153.6h-157.013v102.4c0 40.96 10.24 81.92 81.92 81.92z" />
<glyph unicode="&#xe977;" glyph-name="twitter" d="M341.333 28.16c-112.64 0-221.867 30.72-314.027 92.16-17.067 10.24-23.893 30.72-17.067 47.787s23.893 30.72 44.373 27.307c58.027-6.827 119.467 0 174.080 23.893-51.2 27.307-92.16 75.093-112.64 133.12-3.413 10.24-3.413 23.893 3.413 34.133-44.373 44.373-71.68 105.813-71.68 167.253 0 17.067 6.827 30.72 20.48 37.547 0 0 0 0 3.413 0-17.067 37.547-27.307 68.267-27.307 102.4 0 40.96 10.24 81.92 30.72 116.053 10.24 13.653 20.48 20.48 34.133 20.48s27.307-3.413 34.133-13.653c78.507-95.573 194.56-160.427 314.027-180.907 0 126.293 105.813 228.693 232.107 228.693 54.613 0 109.227-20.48 150.187-54.613 30.72 6.827 61.44 20.48 88.747 37.547 13.653 10.24 34.133 6.827 47.787-3.413s17.067-30.72 13.653-44.373c-3.413-6.827-6.827-13.653-6.827-20.48 10.24 0 20.48-6.827 27.307-13.653 10.24-13.653 13.653-34.133 3.413-47.787-27.307-40.96-58.027-71.68-92.16-98.987 0 0 0-3.413 0-3.413 0-139.947-54.613-283.307-150.187-392.533-75.093-88.747-211.627-194.56-430.080-194.56zM88.747 144.213c78.507-40.96 163.84-61.44 249.173-61.44 201.387 0 324.267 95.573 395.947 174.080 88.747 98.987 136.533 228.693 136.533 358.4 0 6.827 0 10.24 0 17.067s3.413 17.067 10.24 20.48c23.893 17.067 47.787 40.96 64.853 64.853-6.827-3.413-10.24-3.413-17.067-6.827-10.24-3.413-23.893 0-27.307 10.24-6.827 10.24-3.413 20.48 3.413 30.72 10.24 10.24 20.48 23.893 27.307 37.547-27.307-13.653-58.027-23.893-88.747-30.72-6.827-3.413-17.067 0-23.893 6.827-34.133 34.133-78.507 51.2-126.293 51.2-98.987 0-180.907-81.92-180.907-180.907 0-6.827 0-17.067 0-23.893s0-17.067-6.827-20.48c-6.827-6.827-13.653-6.827-20.48-6.827-143.36 10.24-276.48 78.507-368.64 187.733-13.653-23.893-20.48-51.2-20.48-78.507 0-44.373 13.653-85.333 44.373-116.053 6.827-10.24 6.827-20.48 0-30.72s-17.067-13.653-30.72-10.24c-6.827 3.413-10.24 3.413-17.067 6.827 6.827-58.027 37.547-112.64 88.747-139.947 10.24-6.827 13.653-17.067 10.24-30.72-3.413-10.24-13.653-20.48-27.307-17.067 0 0 0 0 0 0 23.893-51.2 68.267-92.16 126.293-105.813 10.24-3.413 17.067-10.24 20.48-20.48s-3.413-20.48-10.24-27.307c-61.44-37.547-136.533-61.44-211.627-58.027zM81.92 550.4c0 0 0 0 0 0s0 0 0 0zM979.627 727.893c0 0 0 0 0 0s0 0 0 0zM969.387 748.373v0 0z" />
<glyph unicode="&#xe978;" glyph-name="twitter-light" d="M341.333 38.4c-109.227 0-218.453 30.72-310.613 92.16-13.653 6.827-17.067 23.893-13.653 37.547 6.827 13.653 20.48 23.893 34.133 20.48 64.853-6.827 133.12 3.413 194.56 30.72-58.027 23.893-105.813 75.093-122.88 136.533-3.413 10.24 0 23.893 6.827 30.72 0 0 0 0 0 0-47.787 40.96-75.093 102.4-75.093 167.253 0 13.653 6.827 23.893 17.067 30.72 3.413 3.413 6.827 3.413 10.24 3.413-17.067 30.72-23.893 68.267-23.893 102.4 0 40.96 10.24 78.507 30.72 112.64 0 13.653 10.24 20.48 20.48 20.48s20.48-3.413 27.307-13.653c81.92-102.4 201.387-167.253 331.093-184.32 0 3.413 0 3.413 0 6.827 0 122.88 98.987 221.867 221.867 221.867 54.613 0 109.227-20.48 150.187-58.027 34.133 6.827 64.853 20.48 95.573 37.547 10.24 6.827 27.307 6.827 37.547-3.413 10.24-6.827 13.653-23.893 10.24-34.133s-6.827-23.893-13.653-34.133c13.653 3.413 23.893 0 34.133-10.24s10.24-27.307 3.413-37.547c-23.893-37.547-54.613-68.267-88.747-95.573 0-3.413 0-6.827 0-10.24 0-139.947-54.613-279.893-146.773-385.707-81.92-81.92-215.040-184.32-430.080-184.32zM47.787 154.453c88.747-51.2 187.733-81.92 293.547-81.92 204.8 0 331.093 95.573 402.773 177.493 88.747 98.987 139.947 232.107 139.947 365.227 0 6.827 0 10.24 0 17.067s3.413 10.24 6.827 13.653c34.133 23.893 61.44 54.613 85.333 88.747-13.653-6.827-27.307-10.24-44.373-17.067-6.827-3.413-13.653 0-20.48 6.827-3.413 6.827-3.413 13.653 0 20.48 17.067 20.48 30.72 40.96 37.547 68.267-34.133-23.893-71.68-37.547-109.227-47.787-6.827 0-10.24 0-17.067 3.413-34.133 34.133-81.92 54.613-133.12 54.613-105.813 0-187.733-85.333-187.733-187.733 0-6.827 0-17.067 0-23.893 0-3.413 0-10.24-3.413-13.653s-10.24-6.827-13.653-6.827c-143.36 13.653-279.893 85.333-372.053 197.973-17.067-27.307-23.893-61.44-23.893-95.573 0-44.373 17.067-88.747 44.373-122.88 3.413-6.827 6.827-13.653 0-20.48-3.413-6.827-13.653-10.24-20.48-6.827-10.24 3.413-20.48 6.827-30.72 13.653 3.413-68.267 37.547-129.707 95.573-163.84 6.827-3.413 10.24-13.653 6.827-20.48s-10.24-13.653-17.067-10.24c-6.827 0-10.24 0-17.067 3.413 20.48-61.44 75.093-109.227 139.947-122.88 6.827 0 10.24-6.827 13.653-13.653 0-6.827-3.413-13.653-6.827-17.067-71.68-47.787-163.84-68.267-249.173-58.027zM969.387 748.373v0 0z" />
<glyph unicode="&#xe979;" glyph-name="twitter-solid" d="M969.387 748.373c-13.653-6.827-30.72-13.653-47.787-17.067 17.067 20.48 34.133 47.787 40.96 75.093 3.413 6.827 0 13.653-3.413 17.067s-13.653 3.413-17.067 0c-34.133-20.48-68.267-34.133-109.227-40.96-37.547 37.547-88.747 58.027-143.36 58.027-112.64 0-204.8-92.16-204.8-204.8 0-10.24 0-17.067 0-27.307-139.947 13.653-273.067 81.92-361.813 191.147 0 3.413-6.827 6.827-10.24 6.827-6.827 0-10.24-3.413-13.653-6.827-17.067-30.72-27.307-68.267-27.307-102.4 0-51.2 17.067-95.573 47.787-133.12-10.24 3.413-17.067 6.827-27.307 13.653-3.413 3.413-10.24 3.413-13.653 0-6.827-6.827-10.24-13.653-10.24-17.067 0 0 0-3.413 0-3.413 0-75.093 40.96-139.947 102.4-177.493-6.827 0-10.24 0-17.067 3.413-6.827 0-10.24 0-13.653-3.413-3.413-6.827-3.413-10.24-3.413-17.067 23.893-71.68 81.92-122.88 150.187-136.533-58.027-37.547-126.293-54.613-194.56-54.613-13.653 0-30.72 0-44.373 3.413-6.827 0-13.653-3.413-17.067-10.24s0-13.653 6.827-17.067c88.747-58.027 194.56-88.747 300.373-88.747 208.213 0 341.333 98.987 413.013 180.907 92.16 102.4 143.36 238.933 143.36 375.467 0 6.827 0 10.24 0 17.067 37.547 27.307 68.267 61.44 92.16 98.987 3.413 6.827 3.413 13.653 0 17.067s-10.24 3.413-17.067 0z" />
<glyph unicode="&#xe97a;" glyph-name="whatsapp" d="M37.547-29.867l68.267 245.76c-133.12 225.28-54.613 515.413 170.667 645.12s518.827 54.613 648.533-174.080 54.613-515.413-174.080-645.12c-143.36-81.92-317.44-85.333-464.213-6.827l-249.173-64.853zM296.96 120.32c180.907-116.053 423.253-64.853 542.72 116.053s64.853 423.253-116.053 542.72-423.253 64.853-539.307-116.053c-85.333-133.12-85.333-303.787 6.827-436.907l-40.96-143.36 146.773 37.547zM750.933 338.773c-3.413 3.413-10.24 6.827-23.893 13.653s-68.267 34.133-81.92 37.547-17.067 6.827-27.307-6.827-30.72-37.547-37.547-47.787-13.653-10.24-27.307-3.413c-34.133 13.653-68.267 34.133-95.573 58.027s-47.787 51.2-64.853 81.92c-6.827 13.653 0 17.067 3.413 23.893s10.24 13.653 17.067 20.48c3.413 6.827 10.24 13.653 13.653 20.48s3.413 13.653 0 20.48c-3.413 6.827-27.307 64.853-37.547 88.747s-13.653 23.893-20.48 23.893h-23.893c-13.653 0-23.893-6.827-30.72-13.653-27.307-27.307-40.96-61.44-40.96-98.987 3.413-44.373 20.48-88.747 47.787-122.88 51.2-75.093 119.467-136.533 201.387-177.493 23.893-10.24 44.373-17.067 68.267-23.893s51.2-10.24 75.093-3.413c34.133 6.827 61.44 27.307 78.507 54.613 6.827 17.067 10.24 34.133 6.827 54.613z" />
<glyph unicode="&#xe97b;" glyph-name="whatsapp-light" horiz-adv-x="990" d="M815.787 772.267c-177.493 177.493-467.627 177.493-645.12 0-81.92-85.333-133.12-201.387-133.12-324.267 0-78.507 20.48-157.013 61.44-228.693l3.413-3.413-61.44-221.867 228.693 61.44 6.827-3.413c221.867-119.467 498.347-37.547 617.813 180.907 98.987 174.080 64.853 395.947-78.507 539.307zM494.933 38.4c-75.093 0-150.187 20.48-215.040 61.44l-170.667-44.373 44.373 167.253c-126.293 187.733-75.093 443.733 112.64 566.613s443.733 71.68 566.613-116.053 71.68-443.733-116.053-566.613c-64.853-44.373-143.36-68.267-221.867-68.267zM723.627 366.080l-6.827 3.413c-6.827 3.413-68.267 34.133-81.92 37.547-17.067 10.24-37.547 3.413-47.787-13.653 0 0 0 0 0 0-6.827-10.24-27.307-34.133-34.133-44.373 0 0-3.413 0-3.413 0l-10.24 3.413c-30.72 13.653-58.027 30.72-81.92 51.2-23.893 23.893-44.373 47.787-64.853 78.507l23.893 23.893c6.827 6.827 10.24 13.653 13.653 20.48v3.413c6.827 10.24 6.827 23.893 0 34.133-3.413 3.413-13.653 34.133-23.893 58.027l-13.653 30.72c-10.24 30.72-27.307 34.133-40.96 34.133h-23.893c-17.067 0-34.133-10.24-47.787-23.893-27.307-27.307-40.96-64.853-40.96-105.813 3.413-47.787 23.893-95.573 54.613-133.12 51.2-78.507 122.88-139.947 208.213-180.907 23.893-10.24 44.373-17.067 68.267-27.307 17.067-3.413 34.133-6.827 51.2-6.827 10.24 0 20.48 0 30.72 3.413 40.96 6.827 75.093 34.133 92.16 68.267 10.24 20.48 10.24 44.373 6.827 68.267-6.827 6.827-17.067 13.653-27.307 17.067zM645.12 243.2c-23.893-3.413-47.787-3.413-68.267 3.413-23.893 6.827-44.373 13.653-64.853 23.893-78.507 37.547-143.36 98.987-191.147 170.667l-3.413 6.827c-27.307 30.72-40.96 68.267-44.373 109.227 0 30.72 10.24 61.44 34.133 85.333l3.413 3.413c3.413 3.413 10.24 6.827 17.067 6.827h30.72c3.413-3.413 3.413-6.827 6.827-10.24l10.24-27.307c13.653-34.133 23.893-54.613 23.893-61.44s0-3.413 0-3.413l-3.413-3.413c-3.413-3.413-3.413-10.24-6.827-13.653l-6.827-6.827c-3.413-3.413-6.827-6.827-10.24-13.653-13.653-10.24-17.067-30.72-6.827-44.373 17.067-30.72 40.96-61.44 68.267-85.333s58.027-44.373 92.16-58.027l6.827-3.413c13.653-10.24 34.133-6.827 47.787 6.827 13.653 17.067 27.307 30.72 37.547 51.2l6.827-3.413c10.24-3.413 64.853-30.72 78.507-37.547l13.653-6.827c0-13.653-3.413-27.307-6.827-40.96-13.653-23.893-37.547-40.96-64.853-47.787z" />
<glyph unicode="&#xe97c;" glyph-name="whatsapp-solid" d="M832.853 772.267c-177.493 177.493-467.627 177.493-645.12 0-81.92-85.333-133.12-201.387-133.12-324.267 0-78.507 20.48-157.013 61.44-228.693l3.413-6.827-61.44-221.867 228.693 61.44 6.827-3.413c221.867-119.467 498.347-37.547 617.813 180.907 98.987 177.493 64.853 399.36-78.507 542.72zM593.92 243.2c-23.893 6.827-44.373 13.653-64.853 23.893-78.507 37.547-143.36 98.987-191.147 170.667l-3.413 3.413c-23.893 30.72-40.96 68.267-44.373 109.227 0 30.72 10.24 61.44 34.133 85.333l3.413 3.413c3.413 6.827 10.24 10.24 20.48 10.24h27.307c3.413-3.413 3.413-6.827 6.827-10.24l10.24-27.307c13.653-34.133 23.893-54.613 23.893-61.44s0-3.413 0-3.413l-3.413-3.413c-3.413-3.413-3.413-10.24-6.827-13.653l-6.827-6.827c-3.413-3.413-6.827-6.827-10.24-13.653-13.653-10.24-17.067-30.72-6.827-44.373 17.067-30.72 40.96-61.44 68.267-85.333s58.027-44.373 92.16-58.027l6.827-3.413c13.653-10.24 34.133-6.827 47.787 6.827 13.653 17.067 27.307 30.72 37.547 51.2l6.827-3.413c10.24-3.413 64.853-30.72 78.507-37.547l13.653-6.827c0-13.653-3.413-27.307-6.827-40.96-13.653-23.893-37.547-40.96-64.853-44.373-23.893-6.827-47.787-3.413-68.267 0v0z" />
<glyph unicode="&#xe97d;" glyph-name="youtube" d="M730.453 89.6h-436.907c-235.52 0-279.893 102.4-279.893 276.48v163.84c0 92.16 0 157.013 37.547 204.8 40.96 51.2 109.227 71.68 242.347 71.68h436.907c129.707 0 197.973-20.48 235.52-64.853v0c40.96-47.787 44.373-112.64 44.373-211.627v-163.84c0-112.64-17.067-177.493-61.44-218.453s-105.813-58.027-218.453-58.027zM293.547 755.2c-112.64 0-174.080-17.067-201.387-51.2s-27.307-92.16-27.307-174.080v-163.84c0-157.013 34.133-225.28 228.693-225.28h436.907c95.573 0 150.187 13.653 180.907 44.373 34.133 30.72 47.787 85.333 47.787 180.907v163.84c0 85.333-3.413 143.36-30.72 177.493v0c-27.307 34.133-88.747 47.787-197.973 47.787h-436.907zM433.493 294.4c-10.24 0-20.48 3.413-30.72 6.827-17.067 10.24-27.307 27.307-27.307 47.787v204.8c0 20.48 10.24 37.547 27.307 47.787s37.547 10.24 54.613 3.413l197.973-102.4c17.067-10.24 30.72-27.307 30.72-51.2 0-20.48-10.24-40.96-30.72-51.2l-197.973-102.4c-6.827-3.413-13.653-3.413-23.893-3.413zM433.493 560.64c0 0 0 0 0 0-3.413 0-3.413-3.413-3.413-3.413v-204.8c0 0 0-3.413 3.413-3.413l17.067-23.893-13.653 20.48 197.973 102.4c0 0 3.413 3.413 3.413 3.413 0 3.413 0 3.413-3.413 3.413l-201.387 105.813c3.413 0 0 0 0 0z" />
<glyph unicode="&#xe97e;" glyph-name="youtube-light" d="M730.453 99.84h-436.907c-228.693 0-269.653 95.573-269.653 266.24v163.84c0 88.747 0 153.6 37.547 201.387s105.813 68.267 235.52 68.267h436.907c126.293 0 191.147-17.067 228.693-64.853v0c37.547-44.373 40.96-109.227 40.96-204.8v-163.84c0-109.227-17.067-170.667-61.44-211.627-40.96-40.96-102.4-54.613-211.627-54.613zM293.547 762.027c-116.053 0-177.493-17.067-208.213-54.613s-30.72-95.573-30.72-180.907v-163.84c0-160.427 34.133-232.107 235.52-232.107h436.907c98.987 0 153.6 13.653 187.733 44.373 34.133 34.133 47.787 88.747 47.787 187.733v163.84c0 85.333-3.413 146.773-34.133 180.907v0c-30.72 37.547-88.747 51.2-204.8 51.2h-430.080zM433.493 301.227c-10.24 0-17.067 3.413-23.893 6.827-13.653 6.827-23.893 23.893-23.893 40.96v204.8c0 17.067 10.24 30.72 23.893 40.96s30.72 10.24 47.787 0l197.973-102.4c17.067-6.827 23.893-23.893 27.307-40.96 0-17.067-10.24-34.133-23.893-40.96l-197.973-102.4c-10.24-3.413-20.48-6.827-27.307-6.827zM433.493 567.467c-3.413 0-3.413 0-6.827-3.413s-6.827-6.827-6.827-10.24v-204.8c0-3.413 3.413-10.24 6.827-10.24 3.413-3.413 10.24-3.413 13.653 0l197.973 102.4c3.413 3.413 6.827 6.827 6.827 10.24s-3.413 10.24-6.827 10.24l-197.973 102.4c-3.413 3.413-3.413 3.413-6.827 3.413z" />
<glyph unicode="&#xe97f;" glyph-name="youtube-solid" d="M962.56 731.307c-34.133 40.96-98.987 58.027-225.28 58.027h-450.56c-126.293 0-194.56-17.067-228.693-61.44s-34.133-105.813-34.133-194.56v-167.253c0-170.667 40.96-259.413 262.827-259.413h450.56c109.227 0 167.253 13.653 204.8 51.2 40.96 37.547 58.027 98.987 58.027 208.213v167.253c0 92.16-3.413 157.013-37.547 197.973zM651.947 424.107l-204.8-105.813c-3.413-3.413-10.24-3.413-13.653-3.413-6.827 0-10.24 0-17.067 3.413-10.24 6.827-13.653 17.067-13.653 27.307v211.627c0 10.24 6.827 20.48 13.653 27.307 10.24 6.827 20.48 6.827 30.72 0l204.8-105.813c10.24-6.827 17.067-17.067 17.067-27.307s-6.827-20.48-17.067-27.307z" />
<glyph unicode="&#xe989;" glyph-name="arrow" d="M791.893 451.413c0 20.48-10.24 37.547-23.893 54.613l-382.293 416.427c-17.067 17.067-37.547 27.307-61.44 30.72-23.893 0-47.787-6.827-64.853-23.893-17.067-13.653-27.307-37.547-27.307-61.44s6.827-44.373 23.893-61.44l331.093-358.4-331.093-358.4c-17.067-17.067-23.893-40.96-23.893-61.44 0-23.893 10.24-44.373 27.307-61.44s40.96-23.893 64.853-23.893c23.893 0 44.373 13.653 61.44 30.72l382.293 416.427c17.067 17.067 23.893 40.96 23.893 61.44z" />
<glyph unicode="&#xe98a;" glyph-name="enlarge" d="M1024 960h-416l160-160-192-192 96-96 192 192 160-160zM1024-64v416l-160-160-192 192-96-96 192-192-160-160zM0-64h416l-160 160 192 192-96 96-192-192-160 160zM0 960v-416l160 160 192-192 96 96-192 192 160 160z" />
<glyph unicode="&#xe98b;" glyph-name="shrink" d="M576 512h416l-160 160 192 192-96 96-192-192-160 160zM576 384v-416l160 160 192-192 96 96-192 192 160 160zM448 384.004h-416l160-160-192-192 96-96 192 192 160-160zM448 512v416l-160-160-192 192-96-96 192-192-160-160z" />
<glyph unicode="&#xe98f;" glyph-name="hand-shake" d="M955.733 680.107c-3.413 10.24-10.24 20.48-17.067 23.893-10.24 6.827-20.48 6.827-30.72 6.827l-95.573-17.067c-10.24-3.413-20.48-10.24-27.307-17.067-3.413-6.827-6.827-13.653-6.827-20.48l-109.227-17.067c-20.48 10.24-85.333 40.96-150.187 27.307h-6.827c-27.307 10.24-61.44 13.653-88.747 13.653-37.547-3.413-75.093-20.48-102.4-51.2l-37.547 13.653c3.413 10.24 0 20.48-3.413 27.307-6.827 10.24-13.653 17.067-23.893 23.893l-95.573 30.72c-10.24 3.413-23.893 3.413-34.133-3.413-6.827-3.413-17.067-10.24-20.48-20.48l-95.573-242.347c-3.413-10.24-3.413-23.893 0-34.133s13.653-17.067 23.893-23.893l102.4-34.133c3.413 0 6.827-3.413 10.24-3.413 6.827 0 13.653 0 20.48 3.413s10.24 6.827 13.653 10.24l37.547-23.893c-3.413-6.827-6.827-13.653-6.827-23.893 0-13.653 3.413-27.307 13.653-37.547s20.48-17.067 37.547-17.067c3.413 0 6.827 0 6.827 0 0-10.24 6.827-23.893 13.653-30.72 10.24-10.24 23.893-17.067 40.96-20.48 6.827 0 17.067 0 23.893 3.413 3.413-10.24 13.653-20.48 23.893-27.307s23.893-6.827 37.547-3.413c3.413-6.827 10.24-13.653 13.653-17.067 6.827-3.413 17.067-6.827 23.893-6.827 3.413 0 6.827 0 10.24 0 6.827 3.413 17.067 6.827 20.48 13.653 6.827-3.413 10.24-3.413 17.067-3.413s17.067 0 23.893 3.413 13.653 10.24 17.067 17.067c3.413 3.413 3.413 6.827 6.827 10.24 3.413 0 6.827 0 10.24 0 13.653 0 30.72 6.827 40.96 17.067 3.413 6.827 6.827 13.653 10.24 20.48h3.413c13.653 0 27.307 3.413 37.547 13.653 6.827 6.827 13.653 17.067 17.067 27.307 6.827-3.413 17.067 0 27.307 0 13.653 3.413 20.48 13.653 27.307 23.893 3.413 10.24 6.827 20.48 3.413 30.72 6.827 3.413 17.067 10.24 27.307 17.067s20.48 20.48 23.893 37.547l23.893 3.413 3.413-17.067c3.413-10.24 10.24-20.48 17.067-27.307 6.827-3.413 13.653-6.827 20.48-6.827 3.413 0 6.827 0 13.653 0l105.813 23.893c10.24 3.413 20.48 10.24 27.307 20.48 3.413 6.827 6.827 13.653 6.827 17.067h34.133l-68.267 266.24zM866.987 389.973l-58.027 256c0 3.413 0 3.413 0 6.827s3.413 3.413 6.827 3.413l95.573 17.067c0 0 0 0 3.413 0s6.827-3.413 6.827-6.827l68.267-252.587c0-3.413 0-3.413 0-6.827s0-3.413 0-3.413l-109.227-23.893c-3.413 0-3.413 0-6.827 0-3.413 6.827-6.827 10.24-6.827 10.24zM583.68 424.107v0c-3.413 0-10.24-3.413-13.653-6.827-6.827-6.827-6.827-17.067 0-23.893l78.507-75.093c3.413-3.413 6.827-10.24 6.827-13.653 0-6.827-3.413-10.24-6.827-13.653-6.827-6.827-20.48-6.827-27.307 0l-68.267 64.853c-3.413 3.413-6.827 3.413-13.653 3.413-3.413 0-10.24-3.413-10.24-6.827-3.413-3.413-3.413-6.827-3.413-13.653 0-3.413 3.413-10.24 6.827-10.24l61.44-58.027c6.827-6.827 6.827-13.653 0-20.48s-13.653-6.827-20.48-3.413l-68.267 54.613c-3.413 3.413-6.827 3.413-13.653 3.413-3.413 0-6.827-3.413-10.24-6.827s-3.413-6.827-3.413-13.653c0-3.413 3.413-6.827 6.827-10.24l47.787-34.133c6.827-3.413 6.827-10.24 3.413-17.067s-10.24-6.827-17.067-3.413l-3.413 3.413c0 10.24-3.413 17.067-10.24 27.307-6.827 6.827-17.067 13.653-30.72 13.653-3.413 0-6.827 0-10.24 0-3.413 13.653-10.24 23.893-23.893 30.72-10.24 6.827-23.893 6.827-37.547 6.827-3.413 10.24-6.827 20.48-13.653 27.307-10.24 10.24-23.893 17.067-37.547 17.067-3.413 0-10.24 0-13.653 0-3.413 10.24-6.827 17.067-13.653 23.893-10.24 10.24-20.48 13.653-34.133 17.067-6.827 0-13.653 0-20.48-3.413l-54.613 30.72 58.027 201.387 51.2-17.067h3.413c6.827 0 10.24 3.413 13.653 6.827 0 0 34.133 47.787 85.333 47.787h3.413c-3.413 0-6.827-3.413-10.24-3.413-10.24-3.413-17.067-10.24-23.893-17.067l-75.093-95.573c-6.827-10.24-10.24-20.48-10.24-34.133 3.413-13.653 6.827-23.893 17.067-30.72s23.893-13.653 37.547-13.653c20.48 0 37.547 6.827 54.613 20.48l58.027 58.027 64.853-3.413c3.413-3.413 6.827-6.827 10.24-6.827l153.6-167.253c6.827-6.827 3.413-13.653 0-20.48-6.827-6.827-13.653-6.827-20.48 0l-92.16 75.093c-3.413 6.827-6.827 10.24-10.24 10.24zM392.533 232.96c-3.413 6.827 0 13.653 3.413 17.067s13.653 6.827 17.067 3.413c6.827-3.413 10.24-10.24 10.24-17.067 0-10.24-6.827-17.067-17.067-17.067-6.827 3.413-13.653 10.24-13.653 13.653zM334.507 253.44v0c-10.24 0-17.067 6.827-20.48 17.067s0 20.48 6.827 27.307c3.413 3.413 10.24 6.827 17.067 6.827 3.413 0 6.827 0 10.24-3.413 10.24-3.413 13.653-13.653 13.653-23.893 0-13.653-10.24-23.893-27.307-23.893zM249.173 325.12c0 6.827 6.827 13.653 13.653 17.067 3.413 0 3.413 0 6.827 0 6.827 0 10.24-3.413 13.653-6.827 3.413-6.827 6.827-13.653 3.413-20.48s-10.24-10.24-20.48-10.24c-3.413 0-10.24 3.413-13.653 6.827 3.413 3.413-3.413 6.827-3.413 13.653v0zM457.387 215.893c3.413 3.413 6.827 3.413 10.24 0 3.413 0 6.827-3.413 3.413-10.24 0-3.413 0-3.413-3.413-6.827-3.413 0-3.413-3.413-6.827-3.413s-6.827 3.413-6.827 6.827c0 10.24 3.413 13.653 3.413 13.653zM699.733 471.893c3.413 0 10.24 3.413 13.653 6.827s3.413 6.827 3.413 13.653-3.413 10.24-6.827 10.24c-3.413 3.413-6.827 3.413-13.653 3.413-47.787-3.413-92.16 10.24-126.293 37.547-3.413 6.827-6.827 6.827-10.24 6.827l-81.92 6.827c-3.413 0-10.24 0-13.653-3.413l-64.853-61.44c-6.827-6.827-13.653-10.24-20.48-10.24s-17.067 3.413-23.893 6.827c-3.413 3.413-3.413 3.413-3.413 6.827s0 6.827 3.413 10.24l75.093 95.573c3.413 3.413 3.413 3.413 6.827 6.827 27.307 10.24 61.44 20.48 92.16 23.893 64.853 13.653 126.293-27.307 129.707-27.307 3.413-3.413 6.827-3.413 10.24-3.413l116.053 20.48 40.96-180.907-34.133-3.413c-6.827 0-13.653-6.827-13.653-17.067s-6.827-23.893-10.24-23.893c-10.24-6.827-20.48-10.24-27.307-17.067l-95.573 102.4c13.653-10.24 34.133-10.24 54.613-10.24zM157.013 400.213c0-3.413-3.413-3.413-3.413-3.413v0c-3.413 0-3.413 0-6.827 0l-102.4 34.133c-3.413 0-3.413 3.413-3.413 3.413 0 3.413 0 3.413 0 6.827l95.573 242.347c0 3.413 3.413 10.24 6.827 10.24v0h3.413l92.16-34.133c3.413 0 3.413-3.413 3.413-3.413 0-3.413 0-3.413 0-6.827l-81.92-245.76-3.413-3.413z" />
<glyph unicode="&#xe991;" glyph-name="hand-shake-solid" d="M413.013 195.413l-30.72-40.96c-20.48-37.547 20.48-58.027 44.373-40.96 3.413 3.413 37.547 44.373 40.96 54.613 10.24 23.893-30.72 58.027-54.613 27.307v0zM395.947 294.4c23.893-3.413 37.547-23.893 44.373-47.787 0-6.827 3.413-10.24 10.24-13.653 30.72-6.827 51.2-34.133 44.373-61.44 0-3.413 0-3.413 0-6.827-3.413-6.827 0-13.653 6.827-20.48 20.48-6.827 44.373-20.48 58.027-23.893 30.72-10.24 75.093 23.893 34.133 44.373l-61.44 30.72c-17.067 3.413-17.067 23.893 3.413 20.48 6.827-3.413 20.48-6.827 27.307-10.24 23.893-10.24 37.547-23.893 58.027-30.72 44.373-23.893 81.92 27.307 47.787 44.373-17.067 6.827-34.133 20.48-47.787 27.307-10.24 6.827-23.893 10.24-34.133 20.48-10.24 6.827-30.72 10.24-23.893 27.307 6.827 6.827 30.72-10.24 51.2-20.48 17.067-6.827 58.027-30.72 75.093-37.547 44.373-27.307 85.333 6.827 47.787 44.373-3.413 6.827-119.467 71.68-133.12 78.507-17.067 10.24 0 27.307 10.24 20.48l163.84-105.813c37.547-13.653 75.093 30.72 44.373 58.027-81.92 61.44-167.253 129.707-262.827 177.493-17.067 6.827-44.373 23.893-54.613 27.307-34.133 10.24-78.507-58.027-102.4-71.68-34.133-20.48-78.507-6.827-88.747 13.653-10.24 23.893 20.48 61.44 44.373 92.16 3.413 3.413 3.413 10.24 3.413 13.653-3.413 3.413-6.827 6.827-10.24 10.24-6.827 0-20.48 3.413-27.307 3.413-17.067 3.413-23.893 6.827-30.72 10.24 0-6.827-3.413-6.827-6.827-10.24-3.413 0-6.827-3.413-10.24-6.827-23.893-37.547-88.747-153.6-109.227-187.733-3.413-6.827-3.413-10.24 3.413-20.48s17.067-20.48 23.893-30.72c3.413-3.413 6.827-3.413 10.24 0 30.72 20.48 64.853 20.48 85.333-13.653 0-3.413 3.413-3.413 6.827-3.413s3.413 0 6.827 3.413l3.413 6.827c27.307 27.307 81.92 3.413 81.92-37.547-6.827-6.827 0-13.653 6.827-13.653v0zM976.213 437.76l-61.44-37.547c-3.413-3.413-6.827-3.413-10.24 0-3.413 0-6.827 3.413-10.24 6.827l-129.707 228.693c-3.413 6.827-3.413 13.653 3.413 20.48l208.213 129.707c3.413 3.413 10.24 3.413 13.653 0 10.24 0 10.24-6.827 10.24-10.24v-279.893c3.413-27.307-3.413-47.787-23.893-58.027v0zM218.453 345.6c-10.24-3.413-34.133-34.133-34.133-47.787 0-23.893 20.48-40.96 40.96-34.133 6.827 3.413 37.547 37.547 37.547 47.787 6.827 23.893-20.48 44.373-44.373 34.133zM368.64 267.093c-10.24-6.827-44.373-58.027-54.613-68.267-27.307-34.133 20.48-64.853 40.96-47.787 6.827 3.413 40.96 54.613 47.787 64.853 27.307 34.133-10.24 68.267-34.133 51.2v0zM317.44 335.36c-10.24-3.413-61.44-68.267-71.68-92.16-23.893-34.133 13.653-68.267 44.373-44.373 10.24 6.827 40.96 61.44 54.613 71.68 6.827 10.24 23.893 23.893 13.653 44.373-6.827 13.653-23.893 30.72-40.96 20.48v0zM808.96 379.733c10.24 10.24 30.72 27.307 40.96 37.547 3.413 3.413 6.827 10.24 3.413 20.48l-78.507 143.36c-6.827 10.24-13.653 27.307-23.893 40.96-3.413 6.827-10.24 10.24-13.653 6.827-102.4-20.48-157.013 68.267-273.067 34.133-27.307-6.827-105.813-109.227-126.293-153.6-3.413-6.827 0-13.653 3.413-20.48 75.093-58.027 88.747 119.467 194.56 61.44 98.987-54.613 170.667-105.813 259.413-174.080 3.413 0 10.24 0 13.653 3.413v0zM13.653 461.653v293.547c0 6.827 0 10.24 6.827 13.653 3.413 3.413 6.827 0 13.653 0l228.693-136.533c10.24-3.413 13.653-13.653 6.827-20.48l-143.36-238.933c-3.413-3.413-3.413-6.827-10.24-6.827-3.413 0-6.827 0-10.24 3.413l-64.853 37.547c-20.48 10.24-27.307 27.307-27.307 54.613v0z" />
<glyph unicode="&#xe994;" glyph-name="tuerca1" d="M933.79 349.75c-53.726 93.054-21.416 212.304 72.152 266.488l-100.626 174.292c-28.75-16.854-62.176-26.518-97.846-26.518-107.536 0-194.708 87.746-194.708 195.99h-201.258c0.266-33.41-8.074-67.282-25.958-98.252-53.724-93.056-173.156-124.702-266.862-70.758l-100.624-174.292c28.97-16.472 54.050-40.588 71.886-71.478 53.638-92.908 21.512-211.92-71.708-266.224l100.626-174.292c28.65 16.696 61.916 26.254 97.4 26.254 107.196 0 194.144-87.192 194.7-194.958h201.254c-0.086 33.074 8.272 66.57 25.966 97.218 53.636 92.906 172.776 124.594 266.414 71.012l100.626 174.29c-28.78 16.466-53.692 40.498-71.434 71.228zM512 240.668c-114.508 0-207.336 92.824-207.336 207.334 0 114.508 92.826 207.334 207.336 207.334 114.508 0 207.332-92.826 207.332-207.334-0.002-114.51-92.824-207.334-207.332-207.334z" />
<glyph unicode="&#xe995;" glyph-name="arrow-up" d="M1010.365 214.054l-465.467 465.455c-8.726 8.729-20.567 13.632-32.911 13.632-12.347 0-24.185-4.906-32.914-13.635l-465.442-465.455c-18.178-18.178-18.178-47.647 0-65.825 18.174-18.174 47.647-18.178 65.825 0l432.531 432.541 432.553-432.541c9.089-9.089 21.001-13.632 32.914-13.632s23.825 4.543 32.914 13.635c18.174 18.178 18.174 47.647-0.003 65.825z" />
<glyph unicode="&#xe9a4;" glyph-name="delivery-date-solid1" d="M512 925.867c-266.24 0-477.867-211.627-477.867-477.867s211.627-477.867 477.867-477.867 477.867 211.627 477.867 477.867-211.627 477.867-477.867 477.867zM112.64 448c0-10.24-3.413-13.653-13.653-13.653h-30.72c-10.24 0-13.653 3.413-13.653 13.653s3.413 13.653 13.653 13.653h30.72c3.413 0 13.653-3.413 13.653-13.653zM498.347 891.733c0 10.24 3.413 13.653 13.653 13.653s13.653-3.413 13.653-13.653v-30.72c0-10.24-3.413-13.653-13.653-13.653s-13.653 3.413-13.653 13.653v30.72zM525.653 4.267c0-10.24-3.413-13.653-13.653-13.653s-13.653 3.413-13.653 13.653v30.72c0 10.24 3.413 13.653 13.653 13.653s13.653-3.413 13.653-13.653v-30.72zM665.6 294.4c-10.24-10.24-27.307-10.24-34.133 0l-109.227 109.227c-3.413 0-10.24 0-13.653 0-27.307 0-47.787 20.48-47.787 47.787 0 17.067 13.653 34.133 30.72 44.373v283.307c0 13.653 10.24 17.067 17.067 17.067 13.653 0 17.067-10.24 17.067-17.067v-286.72c17.067-10.24 30.72-27.307 30.72-44.373 0-3.413 0-10.24 0-13.653l109.227-109.227c6.827-6.827 6.827-20.48 0-30.72v0zM955.733 434.347h-30.72c-10.24 0-13.653 3.413-13.653 13.653s3.413 13.653 13.653 13.653h30.72c10.24 0 13.653-3.413 13.653-13.653 3.413-10.24-3.413-13.653-13.653-13.653z" />
<glyph unicode="&#xe9a5;" glyph-name="delivery-date1" d="M512 919.040c-259.413 0-471.040-211.627-471.040-471.040s211.627-471.040 471.040-471.040 471.040 211.627 471.040 471.040-211.627 471.040-471.040 471.040zM877.227 448c0-17.067 13.653-23.893 23.893-23.893h20.48v-10.24c-17.067-204.8-177.493-365.227-382.293-382.293h-6.827v20.48c0 17.067-13.653 23.893-23.893 23.893-13.653 0-23.893-13.653-23.893-23.893v-20.48h-6.827c-208.213 17.067-368.64 177.493-385.707 382.293v6.827h20.48c17.067 0 23.893 13.653 23.893 23.893 0 17.067-13.653 23.893-23.893 23.893h-17.067v13.653c17.067 204.8 177.493 365.227 382.293 382.293h6.827v-20.48c0-17.067 13.653-23.893 23.893-23.893s23.893 13.653 23.893 23.893v20.48h13.653c204.8-17.067 365.227-177.493 382.293-382.293v-6.827h-20.48c-17.067-3.413-30.72-10.24-30.72-27.307zM552.96 410.453v0c6.827 13.653 13.653 20.48 13.653 34.133 0 17.067-6.827 34.133-23.893 47.787h-3.413v204.8c-3.413 13.653-13.653 23.893-27.307 23.893s-30.72-6.827-30.72-20.48v-204.8h-3.413c-17.067-6.827-23.893-23.893-23.893-47.787s20.48-47.787 40.96-54.613h3.413l51.2-102.4c3.413-3.413 6.827-13.653 17.067-13.653 3.413 0 3.413 0 6.827 0s6.827 0 13.653 3.413c6.827 3.413 13.653 6.827 13.653 17.067 3.413 6.827 0 13.653 0 20.48l-47.787 92.16zM532.48 448c0-13.653-6.827-20.48-20.48-20.48s-20.48 6.827-20.48 20.48c0 13.653 6.827 20.48 20.48 20.48s20.48-6.827 20.48-20.48z" />
<glyph unicode="&#xea0f;" glyph-name="cross" d="M1014.662 137.34c-0.004 0.004-0.008 0.008-0.012 0.010l-310.644 310.65 310.644 310.65c0.004 0.004 0.008 0.006 0.012 0.010 3.344 3.346 5.762 7.254 7.312 11.416 4.246 11.376 1.824 24.682-7.324 33.83l-146.746 146.746c-9.148 9.146-22.45 11.566-33.828 7.32-4.16-1.55-8.070-3.968-11.418-7.31 0-0.004-0.004-0.006-0.008-0.010l-310.648-310.652-310.648 310.65c-0.004 0.004-0.006 0.006-0.010 0.010-3.346 3.342-7.254 5.76-11.414 7.31-11.38 4.248-24.682 1.826-33.83-7.32l-146.748-146.748c-9.148-9.148-11.568-22.452-7.322-33.828 1.552-4.16 3.97-8.072 7.312-11.416 0.004-0.002 0.006-0.006 0.010-0.010l310.65-310.648-310.65-310.652c-0.002-0.004-0.006-0.006-0.008-0.010-3.342-3.346-5.76-7.254-7.314-11.414-4.248-11.376-1.826-24.682 7.322-33.83l146.748-146.746c9.15-9.148 22.452-11.568 33.83-7.322 4.16 1.552 8.070 3.97 11.416 7.312 0.002 0.004 0.006 0.006 0.010 0.010l310.648 310.65 310.648-310.65c0.004-0.002 0.008-0.006 0.012-0.008 3.348-3.344 7.254-5.762 11.414-7.314 11.378-4.246 24.684-1.826 33.828 7.322l146.746 146.748c9.148 9.148 11.57 22.454 7.324 33.83-1.552 4.16-3.97 8.068-7.314 11.414z" />
<glyph unicode="&#xea10;" glyph-name="checkmark" d="M864 832l-480-480-224 224-160-160 384-384 640 640z" />
<glyph unicode="&#xea11;" glyph-name="checkmark2" d="M397.434 42.304l-397.868 391.6 197.378 194.27 200.49-197.332 429.62 422.852 197.378-194.27-626.998-617.12zM107.912 433.904l289.524-284.962 518.656 510.482-89.036 87.632-429.62-422.852-200.49 197.334-89.034-87.634z" />
<glyph unicode="&#xea3c;" glyph-name="arrow-right2" d="M621.254 82.746l320 320c24.994 24.992 24.994 65.516 0 90.51l-320 320c-24.994 24.992-65.516 24.992-90.51 0-24.994-24.994-24.994-65.516 0-90.51l210.746-210.746h-613.49c-35.346 0-64-28.654-64-64s28.654-64 64-64h613.49l-210.746-210.746c-12.496-12.496-18.744-28.876-18.744-45.254s6.248-32.758 18.744-45.254c24.994-24.994 65.516-24.994 90.51 0z" />
<glyph unicode="&#xea40;" glyph-name="arrow-left2" d="M402.746 82.746l-320 320c-24.994 24.992-24.994 65.516 0 90.51l320 320c24.994 24.992 65.516 24.992 90.51 0 24.994-24.994 24.994-65.516 0-90.51l-210.746-210.746h613.49c35.346 0 64-28.654 64-64s-28.654-64-64-64h-613.49l210.746-210.746c12.496-12.496 18.744-28.876 18.744-45.254s-6.248-32.758-18.744-45.254c-24.994-24.994-65.516-24.994-90.51 0z" />
</font>
</defs>
</svg>
